<?xml version="1.0" encoding="utf-8"?>
<!-- Generator: Adobe Illustrator 17.0.0, SVG Export Plug-In . SVG Version: 6.00 Build 0)  -->
<!DOCTYPE svg PUBLIC "-//W3C//DTD SVG 1.1//EN" "http://www.w3.org/Graphics/SVG/1.1/DTD/svg11.dtd" [
	<!ENTITY ns_flows "http://ns.adobe.com/Flows/1.0/">
	<!ENTITY ns_extend "http://ns.adobe.com/Extensibility/1.0/">
	<!ENTITY ns_ai "http://ns.adobe.com/AdobeIllustrator/10.0/">
	<!ENTITY ns_graphs "http://ns.adobe.com/Graphs/1.0/">
	<!ENTITY ns_vars "http://ns.adobe.com/Variables/1.0/">
	<!ENTITY ns_imrep "http://ns.adobe.com/ImageReplacement/1.0/">
	<!ENTITY ns_sfw "http://ns.adobe.com/SaveForWeb/1.0/">
	<!ENTITY ns_custom "http://ns.adobe.com/GenericCustomNamespace/1.0/">
	<!ENTITY ns_adobe_xpath "http://ns.adobe.com/XPath/1.0/">
]>
<svg version="1.1" id="Layer_1" xmlns:x="&ns_extend;" xmlns:i="&ns_ai;" xmlns:graph="&ns_graphs;"
	 xmlns="http://www.w3.org/2000/svg" xmlns:xlink="http://www.w3.org/1999/xlink" xmlns:a="http://ns.adobe.com/AdobeSVGViewerExtensions/3.0/"
	 x="0px" y="0px" width="2047.7px" height="2048px" viewBox="0 0 2047.7 2048" style="enable-background:new 0 0 2047.7 2048;"
	 xml:space="preserve">
<style type="text/css">
	.st0{fill:#3FCEA8;}
	.st1{fill:#3F3D56;}
	.st2{fill:#E6744B;}
	.st3{fill:#D0CDE1;}
	.st4{fill:#CCCCCC;}
	.st5{fill:#FFFFFF;}
	.st6{fill:#5E6187;}
	.st7{fill:#0075A4;}
	.st8{fill:#121C3F;}
	.st9{fill:#13568B;}
	.st10{fill:#F26914;}
	.st11{fill:#2C2C3D;}
	.st12{fill:#E2A13C;}
	.st13{fill:#EFEFEF;}
	.st14{fill:#878787;}
	.st15{fill:#403E56;}
	.st16{clip-path:url(#SVGID_2_);}
	.st17{fill:#EAD6CE;}
	.st18{fill:#3FCEA8;}
	.st19{fill:#363768;}
</style>
<metadata>
	<sfw  xmlns="&ns_sfw;">
		<slices></slices>
		<sliceSourceBounds  width="2100.9" height="2016.1" y="-1037.7" x="-585.4" bottomLeftOrigin="true"></sliceSourceBounds>
	</sfw>
</metadata>
<g>
	<ellipse class="st0" cx="1061.7" cy="1664" rx="483" ry="71.9"/>
	<path class="st0" d="M190.4,929c23.7-28.8,70.3,71,97.4,136.8c1.2-2.1,2.6-4.2,4.1-6.3c-0.5-47.3,4.2-99,28.9-85.4
		c16.7,9.3,15.7,29.4,8.6,52.6c86.9-54.8,266.9-83.1,362.3-61.8c122.6,27.3,279.8,140.3,438.1,20.5
		c229.5-173.6,790.9,93.3,790.9,93.3l-1638.8,1c0.1-0.3,0.2-0.6,0.2-0.8h-53.7C204.1,1036.6,165.8,959,190.4,929z"/>
	<polygon class="st0" points="255.7,1078.6 262.7,1032 291.1,1030 294.6,768.1 315,769.7 323.4,629.2 383.4,628.2 385.1,747 
		415,742.3 417.6,761 432.1,760 437.2,677 503.8,669.2 510,724.8 523.5,722.5 538,520.4 623.5,526.4 627.6,657.2 649.2,657 
		650.8,754 658.6,755.2 670.3,524.2 683.4,519.8 689.2,450.7 709.9,442.7 725.6,338.8 724.6,440.2 737.2,453.1 739.3,510.2 
		746.6,514.9 748,682.9 759.9,811.5 772.1,717.1 813.7,712.3 822.9,508 900.1,505.8 913.5,817.3 928.2,815.1 929.7,685.5 953,678.3 
		955.5,484.9 970.1,481.3 963.7,324 1050.9,301.6 1045.4,469.7 1059,473.4 1060.8,643.5 1070.1,644.7 1078.1,715.9 1089.8,717.4 
		1093.9,554.9 1171.8,561.4 1184,760.2 1193.2,761.3 1197.1,647 1256.4,645.4 1262.3,738 1277.1,740.5 1288.7,853.6 1307.7,853.4 
		1311.8,885.1 1320.5,887.4 1323.1,647.9 1396.1,644.4 1396.2,561.5 1474,563.1 1487.6,708.5 1503,711.3 1499.6,611.7 1569.6,607.2 
		1589.8,711 1617.5,711.3 1616.8,673.5 1685.6,671.9 1696.4,672.6 1707.3,1051.8 1708.9,1047.2 1726.8,1049.6 1728.5,777.3 
		1805.4,774.2 1808,1039.1 1867,1043.3 1866.4,1061.2 1888.4,1063.7 1888.1,1077.5 255.7,1078.6 	"/>
	<g>
		
			<rect x="1259.5" y="1473.9" transform="matrix(-1 1.703819e-004 -1.703819e-004 -1 2586.6846 2958.3855)" class="st1" width="67.5" height="10.7"/>
		<path class="st2" d="M1814.7,1476.5l-13.9,3.2l-529,0.1l-4.8-11.1c-8.3-19-11.1-40-8.2-60.5c2.3-15.3,8-30.5,21-37.1l45.9-155.2
			l270.3-1.5l113.2,91.4c0,0,53.4-0.9,82.4,35.2c9.2,11.4,15.9,26.6,17.7,46.7l1.1,18.8L1814.7,1476.5z"/>
		<circle class="st1" cx="1698.5" cy="1473.9" r="65.3"/>
		<circle class="st3" cx="1698.5" cy="1473.9" r="34.4"/>
		<circle class="st1" cx="1376.2" cy="1473.9" r="65.3"/>
		<circle class="st3" cx="1376.2" cy="1473.9" r="34.4"/>
		<g>
			<path class="st4" d="M1507.2,1340.1c0.2,3.7-7,7-16,7.5c-9,0.4-16.5-2.2-16.7-5.9c-0.2-3.7,7-7,16-7.5
				C1499.6,1333.8,1507,1336.4,1507.2,1340.1z"/>
		</g>
		<path class="st5" d="M1772.4,1342.6c4.7,2.1,18,19,19.8,30c1.7,11.1,0.2,14.7-5.7,13.7c-5.8-0.9-30.2-7.9-38.2-12.6
			c-8.1-4.7-32.5-27.3-34.3-31.1c-1.7-3.8,5.2-8.1,10.4-8.7C1729.6,1333.3,1754.9,1334.9,1772.4,1342.6z"/>
		<path class="st4" d="M1285.1,1421.9c-0.3,5.2-4.8,8.8-9.9,8.1l0,0c-5.1-0.7-9-5.5-8.6-10.6l1.5-21.7c0.4-5.2,4.8-8.8,9.9-8.1l0,0
			c5.1,0.7,9,5.5,8.6,10.6L1285.1,1421.9z"/>
		<path class="st6" d="M1501.9,1303.3c-2.4,0-3.9-1.3-4.8-4.3c-8.2-26.3-8.8-60.4-9.4-65c-0.4-3.2-0.4-5.6,0.5-6.7
			c0.3-0.5,0.8-0.7,1.5-0.7c36.5,1.4,68.2,5.5,80.5,10.6c10.8,4.5,38.7,16.8,64.6,34.5c7.3,5,15.1,10.6,22.7,16.1
			c5.5,4,13.6,17.2,3.5,17.2C1656.4,1305.2,1582.8,1304.4,1501.9,1303.3L1501.9,1303.3z"/>
		<path class="st6" d="M1472.6,1226.3c1.4,0,2.8,0.1,4.3,0.1c0.9,0.5,1.7,2.7,1.4,11.4c-0.4,12.3,5.5,54.4,5.7,59.5
			c0.3,5.1-2.1,5.9-2.1,5.9c-57.5-0.8-115.5-1.6-157.1-1.6c-6,0-7.6-5.1-7-7.5c1.4-5.7,3.1-10.9,5.1-15.2c5.5-12,16.7-33,24.6-43.5
			c1.5-2.1,8.6-5,10.8-5.1c39.9-2,87.6-4,109.3-4C1469.4,1226.2,1471,1226.2,1472.6,1226.3z"/>
	</g>
	<g>
		<rect x="835" y="1092.2" class="st1" width="71.3" height="11.3"/>
		<path class="st7" d="M319.2,1095l14.7,3.4l559.4,0.1l5-11.7c8.8-20.1,11.8-42.3,8.7-64c-2.4-16.2-8.5-32.3-22.2-39.2l-48.5-164.1
			l-285.9-1.6l-119.7,96.6c0,0-56.5-1-87.2,37.2c-9.7,12.1-16.8,28.1-18.7,49.4l-1.2,19.9L319.2,1095z"/>
		<circle class="st1" cx="442" cy="1092.2" r="69.1"/>
		<circle class="st3" cx="442" cy="1092.2" r="36.4"/>
		<circle class="st1" cx="782.9" cy="1092.2" r="69.1"/>
		<circle class="st3" cx="782.9" cy="1092.2" r="36.4"/>
		<g>
			<path class="st4" d="M623,950.7c0,3.9,7.5,7.9,16.9,9c9.3,1.1,17-1.2,17-5.1c0-3.9-7.5-7.9-16.9-9
				C630.6,944.5,623,946.8,623,950.7z"/>
		</g>
		<path class="st5" d="M363.9,953.3c-4.9,2.2-19,20-20.9,31.7c-1.8,11.7-0.2,15.5,6,14.5c6.2-1,31.9-8.4,40.4-13.4
			c8.5-5,34.4-28.9,36.3-32.9c1.8-4-5.5-8.5-11-9.2C409.2,943.5,382.4,945.2,363.9,953.3z"/>
		<path class="st4" d="M879.2,1037.2c0.4,5.5,5.1,9.3,10.5,8.5l0,0c5.4-0.7,9.5-5.8,9.1-11.2l-1.5-22.9c-0.4-5.5-5.1-9.3-10.5-8.5
			l0,0c-5.4,0.7-9.5,5.8-9.1,11.2L879.2,1037.2z"/>
		<path class="st6" d="M650,911.8c2.6,0,4.1-1.4,5.1-4.5c8.7-27.8,9.3-63.8,9.9-68.7c0.4-3.4,0.4-5.9-0.5-7.1
			c-0.4-0.5-0.9-0.8-1.6-0.7c-38.6,1.5-72.2,5.8-85.1,11.2c-11.4,4.7-40.9,17.8-68.3,36.5c-7.7,5.3-15.9,11.2-24,17
			c-5.8,4.2-14.4,18.2-3.7,18.2C486.6,913.8,564.4,912.9,650,911.8L650,911.8z"/>
		<path class="st6" d="M681,830.3c-1.5,0-3,0.1-4.5,0.1c-1,0.5-1.8,2.8-1.5,12c0.4,13-5.8,57.5-6.1,62.9c-0.3,5.4,2.2,6.2,2.3,6.2
			c60.8-0.8,122.1-1.7,166.1-1.7c6.4,0,8-5.4,7.4-7.9c-1.5-6-3.3-11.6-5.4-16.1c-5.8-12.7-17.7-34.9-26-46
			c-1.6-2.2-9.1-5.3-11.5-5.4c-42.2-2.1-92.6-4.3-115.5-4.3C684.4,830.3,682.6,830.3,681,830.3z"/>
	</g>
	<g>
		<polygon class="st8" points="942.1,1404.2 187,1404.2 207.8,1321 336.2,1286.9 942.1,1302.8 		"/>
		<circle class="st1" cx="284.8" cy="1422.5" r="85.4"/>
		<path class="st3" d="M334.2,1422.5c0,27.3-22.1,49.5-49.5,49.5c-27.3,0-49.5-22.2-49.5-49.5c0-27.3,22.1-49.5,49.5-49.5
			C312.1,1373.1,334.2,1395.2,334.2,1422.5z"/>
		<circle class="st1" cx="838.6" cy="1422.5" r="85.4"/>
		<path class="st3" d="M888,1422.5c0,27.3-22.1,49.5-49.5,49.5c-27.3,0-49.5-22.2-49.5-49.5c0-27.3,22.1-49.5,49.5-49.5
			C865.9,1373.1,888,1395.2,888,1422.5z"/>
		<path class="st9" d="M954.4,1287l-0.1-2.8v-0.2l-1.6-8.3c-1.6-9.8-3.2-18.4-4.9-25.1l-13.6-70.1H505.5c0,0-33.1,27.3-69.8,85.6
			l-2.3,0.2c-43.8,0.7-203.4,4.8-219.8,24.3c-19,22.6-20.5,46.8-20.5,46.8s120.9-8.4,150.1,7.7c29.2,16.1,46,85.5,46,85.5H737
			c0,0,3-101.1,102.6-101.2c95.7-0.1,98.3,100.8,98.3,100.8h30.3C968.3,1430.1,962.6,1344.7,954.4,1287z"/>
		<path class="st5" d="M598.7,1274H476.5c-4.6,0-8.3-3.7-8.3-8.3c0-1.2,0.2-2.3,0.7-3.4l19.3-43.5c6.1-13.7,19.7-22.6,34.7-22.6
			h74.3c5.7,0,10.4,4.7,10.4,10.4l0,0v58.4C607.6,1270,603.6,1274,598.7,1274L598.7,1274z"/>
		<path class="st5" d="M645.4,1196.3h107.1c3.4,0,6.1,2.8,6.1,6.1v65.4c0,3.4-2.8,6.1-6.1,6.1H645.4c-3.4,0-6.1-2.8-6.1-6.1v-65.4
			C639.2,1199,642,1196.3,645.4,1196.3z"/>
		<path class="st5" d="M790.7,1196.3h124.4c3.4,0,6.1,2.8,6.1,6.1v65.4c0,3.4-2.8,6.1-6.1,6.1H790.7c-3.4,0-6.1-2.8-6.1-6.1v-65.4
			C784.5,1199,787.3,1196.3,790.7,1196.3z"/>
		<g>
			
				<ellipse transform="matrix(0.9988 -4.932393e-002 4.932393e-002 0.9988 -63.6642 31.0769)" class="st4" cx="597.8" cy="1305.5" rx="17.3" ry="5.8"/>
		</g>
		<g>
			
				<ellipse transform="matrix(0.9988 -4.932393e-002 4.932393e-002 0.9988 -63.5908 38.0247)" class="st4" cx="738.7" cy="1307.5" rx="17.3" ry="5.8"/>
		</g>
		<path class="st5" d="M220.1,1292.6c-3.4,1.5-13.2,13.8-14.4,21.9c-1.3,8.1-0.1,10.7,4.2,10c4.3-0.7,22-5.8,27.9-9.2
			c5.9-3.5,23.8-20,25-22.7c1.3-2.8-3.8-5.9-7.6-6.3C251.4,1285.8,233,1286.9,220.1,1292.6z"/>
		<path class="st10" d="M960.3,1323.2h-13.7c-2.3,0-4,1.9-3.9,4.1l2.7,45.4c0.1,2.3,2.1,4.1,4.4,4.1h12.1
			C961.3,1367,961.1,1340.4,960.3,1323.2z"/>
	</g>
	<g>
		<polygon class="st11" points="1108.9,1135.5 1878.9,1135.5 1857.8,1050.6 1726.8,1015.8 1108.9,1032.1 		"/>
		<path class="st12" d="M1068.3,1082.5v27.1c0,0,22.9,16.6,24.9,29.6c0,0,32.7,8.3,42.1,8.3c0.9,0,1.8,0,2.7,0.1
			c-1.5-3.9-2.6-7.9-3.4-12.1c-8.6-43,19.3-84.8,62.3-93.3s84.8,19.3,93.3,62.3c2,10.2,2,20.8,0,31c-1.1,5.5-2.8,11-5.1,16.2h44.4
			c0,0,0.4,0.1,1.1,0.4c2.4,1.1,8,3.9,8.8,8.4h367.9l7.5-0.1c-1.6-2.7-3-5.5-4.3-8.3c-2.4-5.3-4.1-10.9-5.2-16.6
			c-8.7-43,19.2-84.9,62.2-93.5c43-8.7,84.9,19.2,93.5,62.2c1,5.2,1.6,10.4,1.6,15.7c0,5.2-0.5,10.5-1.5,15.6
			c-1.7,8.7-4.9,17-9.4,24.7c5.3-1.3,16.7-4.9,16.7-4.9s48.8-5.2,61.3-16.2l-1.9-1.3l-8-5.5l3.6-14c0.4-0.6,0.8-1.2,1.1-1.9
			c1-2.3,1.8-6.7-1.6-12.1c-5.2-8.3-2.6-37.9-2.6-37.9s-70.7-48.8-209.9-59.8c0,0-3.3,2.6-10.2,3.1c-4.7,0.4-10.9-0.2-18.9-3.1
			c0,0-11.4,5.2-60.3-22.9c0,0-83.1-57.2-192.3-52c0,0-112.2-6.8-207.8,30.2c-41.2,15.9-72.6,24.4-94.9,28.9
			c-20.6,4.1-33.6,4.9-39.5,5h-0.1c-1.9,0-3.1,0-3.5,0h-0.2c0,0,0,12.4-0.7,27v0.1c-0.2,5.1-0.6,10.4-1,15.6v0.3
			c-1.2,14.5-3.4,27.6-7.1,30.3L1068.3,1082.5z"/>
		<path class="st5" d="M1440,943.4l25.2,66.1l90.9,0.1h23.4h20.4h17.6h19.9c0,0-12.1-8.9-31.7-20.3c-6.5-3.8-13.8-7.8-21.8-11.8
			c-7.3-3.7-15.2-7.5-23.5-11.1c-6.5-2.8-13.3-5.6-20.2-8.1C1508.8,946.7,1473.3,939,1440,943.4z"/>
		<path class="st5" d="M1297.2,991.7c0,0,38,5.6,74.3,9.8c13.9,1.6,27.5,3,38.6,3.7l1.6,0.1c4.3,0.3,8.3,0.5,11.7,0.5
			c5.4,0.1,9.4-0.1,11.4-0.8l-10.5-63.3c0,0-12.9,0.1-32,1.1l-4.2,0.2c-4,0.2-8.2,0.5-12.5,0.8c-6.2,0.4-12.8,0.9-19.6,1.6
			c-32.8,3-69.9,8.4-93.4,18.1C1212.5,984.3,1297.2,991.7,1297.2,991.7z"/>
		<circle class="st1" cx="1783.3" cy="1119.9" r="63.4"/>
		<circle class="st1" cx="1212.9" cy="1119.9" r="63.4"/>
		<path class="st13" d="M1746.6,1119.9c0,20.3,16.4,36.7,36.7,36.7c20.3,0,36.7-16.5,36.7-36.7c0-20.3-16.4-36.7-36.7-36.7
			C1763,1083.1,1746.6,1099.6,1746.6,1119.9z"/>
		<path class="st13" d="M1176.2,1119.9c0,20.3,16.4,36.7,36.7,36.7c20.3,0,36.7-16.5,36.7-36.7c0-20.3-16.4-36.7-36.7-36.7
			C1192.6,1083.1,1176.2,1099.6,1176.2,1119.9z"/>
		<path class="st5" d="M1830.9,1042c18.2,2.6,42,9.1,55.9,14.9c13.9,5.9,23.8,16.9,23,21.2s-22.8-0.2-38.5-7.5
			C1855.5,1063.3,1828.9,1041.7,1830.9,1042z"/>
		<g>
			<path class="st4" d="M1472.1,1041.4c-0.2,2.6,6.5,5.9,15,7.4c8.5,1.5,15.5,0.6,15.7-2c0.2-2.6-6.5-5.9-15-7.4
				C1479.3,1038,1472.3,1038.8,1472.1,1041.4z"/>
		</g>
		<g>
			<path class="st14" d="M1279,1029.7c-0.6,5.1,5.3,10,13.3,11c7.9,0.9,14.9-2.4,15.5-7.5c0.6-5.1-5.3-10-13.3-11
				C1286.5,1021.2,1279.6,1024.6,1279,1029.7z"/>
			
				<ellipse transform="matrix(-0.993 -0.1178 0.1178 -0.993 2456.2681 2207.9663)" class="st4" cx="1293.4" cy="1031.4" rx="19.2" ry="4.8"/>
		</g>
	</g>
	<g>
		<g>
			<g>
				<g>
					<g>
						<g>
							<path class="st15" d="M1243.2,1692.2l-378.2-0.2c-45.5,0-82.3-36.9-82.3-82.4l0.2-948.2c0-45.5,36.9-82.4,82.4-82.4
								l378.2,0.2c45.5,0,82.3,36.9,82.3,82.4l-0.2,948.2C1325.6,1655.3,1288.7,1692.2,1243.2,1692.2z"/>
						</g>
					</g>
				</g>
			</g>
		</g>
	</g>
	<g>
		<defs>
			<path id="SVGID_1_" d="M1243.4,613.6l-73.4,0c-9.8,0-17.8,8.3-17.8,18.6l0,13.3c0,10.3-8,18.6-17.8,18.6L991.2,664
				c-9.8,0-17.8-8.4-17.8-18.6l0-13.3c0-10.3-8-18.6-17.8-18.6l-25.8,0l-64.2,0c-31.9,0-57.8,25.8-57.8,57.7l-0.2,926.4
				c0,31.9,25.8,57.7,57.7,57.8l377.8,0.2c31.9,0,57.8-25.8,57.8-57.7l0.2-926.4C1301.1,639.5,1275.2,613.6,1243.4,613.6z"/>
		</defs>
		<clipPath id="SVGID_2_">
			<use xlink:href="#SVGID_1_"  style="overflow:visible;"/>
		</clipPath>
		<g class="st16">
			<rect x="800.2" y="608" class="st17" width="517.1" height="1047"/>
			<polyline class="st7" points="1024.1,1225 1048.8,1412.7 1264.5,1227.5 			"/>
			<polyline class="st7" points="1049.2,667 1060.7,746.5 1071.5,749.7 1248,718.9 1230.7,636.1 			"/>
			<polyline class="st7" points="1078.9,846 1056.6,954.7 1291.2,923.8 1264.1,807.7 			"/>
			<g>
				<g>
					<g>
						<polygon class="st7" points="933.4,929.8 858.5,929.8 858.5,1019.9 637.5,1019.9 658.2,1147.8 696.7,1147.8 731.4,1303.3 
							961,1242.1 1014,1250.3 1014,1228.3 1034.1,1032.7 						"/>
					</g>
				</g>
				<g>
					<g>
						<polygon class="st5" points="776.6,1297.6 772.2,1279.8 960.5,1232.8 1015.2,1240.3 1012.7,1258.4 961.5,1251.4 						"/>
					</g>
				</g>
				<g>
					<g>
						<polygon class="st5" points="874.5,1521.6 474.1,1456.6 482.3,1406 882.7,1471 						"/>
					</g>
					<g>
						<polygon class="st5" points="384.8,1519.4 359.4,1474.9 699.6,1281.1 712.2,1277.7 781.7,1277.7 807.1,1299.6 821,1393.7 
							868.4,1478.7 823.7,1503.7 774,1414.5 771,1405.8 759.6,1328.9 719,1328.9 						"/>
					</g>
					<g>
						<polygon class="st5" points="1034.5,1041.8 1025.2,1030.4 1072.2,849.6 1036.1,672.4 1035.9,670.3 1043.2,472.8 1055.7,464.6 
							1342.4,576.9 1346.7,580.3 1606.7,967.2 1591.5,977.4 1333.1,592.9 1061,486.3 1054.2,669.8 1090.6,848 1090.5,852.1 
							1046,1023 1458.9,1005.9 1378.3,872.8 1393.9,863.3 1482.6,1009.6 1475.2,1023.5 						"/>
					</g>
					<g>
						<polygon class="st5" points="1044.9,677.8 1041.5,659.8 1288.1,612.6 1469.2,475 1480.3,489.5 1297.5,628.5 1293.6,630.2 
													"/>
					</g>
					<g>
						
							<rect x="1146.2" y="1085.2" transform="matrix(1.288958e-002 0.9999 -0.9999 1.288958e-002 2366.8181 55.4903)" class="st5" width="18.3" height="282.7"/>
					</g>
					<g>
						<polygon class="st5" points="1242.5,1224.7 1224.3,1224.7 1224.3,976 1229.9,967.5 1289.1,943.2 1309.5,905.8 1312.7,902.4 
							1761.3,627.1 1770.8,642.7 1324.4,916.7 1303.6,954.8 1299.1,958.8 1242.5,982.1 						"/>
					</g>
					<g>
						
							<rect x="1103.7" y="783.5" transform="matrix(0.1934 0.9811 -0.9811 0.1934 1797.6617 -601.2431)" class="st5" width="321.5" height="18.3"/>
					</g>
					<g>
						
							<rect x="1029.8" y="1610.5" transform="matrix(0.9549 0.2971 -0.2971 0.9549 544.1358 -341.5907)" class="st5" width="732.5" height="18.3"/>
					</g>
					<g>
						<polygon class="st5" points="1305.3,1591.7 1288,1585.7 1306.1,1533.7 1151.3,1376.8 1164.3,1363.9 1323.1,1524.9 
							1325.2,1534.3 						"/>
					</g>
					<g>
						<polygon class="st5" points="1529.9,1665 1525.5,1620.8 1184.7,1341.2 1196.3,1327 1540,1609 1543.3,1615.2 1548.1,1663.2 
													"/>
					</g>
					<g>
						
							<rect x="951.9" y="419.6" transform="matrix(0.4891 0.8723 -0.8723 0.4891 948.3605 -570.3621)" class="st5" width="18.3" height="209.4"/>
					</g>
					<g>
						<polygon class="st5" points="1508.4,1590.7 1491.1,1584.9 1508.4,1533.4 1308.1,1382.7 1244.6,1452.1 1231.1,1439.8 
							1300.2,1364.2 1312.4,1363.1 1524.7,1522.8 1527.8,1533 						"/>
					</g>
					<g>
						
							<rect x="1147.3" y="642.8" transform="matrix(0.1797 0.9837 -0.9837 0.1797 1674.9271 -531.8917)" class="st5" width="18.3" height="191.1"/>
					</g>
					<g>
						
							<rect x="1163.2" y="731.5" transform="matrix(0.1797 0.9837 -0.9837 0.1797 1775.2465 -474.7985)" class="st5" width="18.3" height="191.1"/>
					</g>
					<g>
						
							<rect x="1163.8" y="828.1" transform="matrix(0.1511 0.9885 -0.9885 0.1511 1926.5149 -360.0587)" class="st5" width="18.3" height="227.2"/>
					</g>
					<g>
						<polygon class="st5" points="952.3,1807 891.3,1614.8 842.6,1584.3 692.9,1550.2 598.9,1550.2 598.9,1531.9 694,1531.9 
							696,1532.1 848.1,1566.9 850.9,1568 903.9,1601 907.7,1606 969.7,1801.5 						"/>
					</g>
					<g>
						<polygon class="st5" points="722.5,1305.3 689.4,1156.9 658.2,1156.9 649.2,1149.3 628.5,1021.3 637.5,1010.7 849.4,1010.7 
							849.4,929.8 858.5,920.7 933.4,920.7 933.4,939 867.7,939 867.7,1019.9 858.5,1029 648.2,1029 666,1138.7 696.7,1138.7 
							705.6,1145.8 740.4,1301.3 						"/>
					</g>
					<g>
						<g>
							<polygon class="st12" points="1153.8,2317.7 1078.7,1938.7 982.2,1627.8 954.6,1600.2 800.4,1711.7 798.6,1712.9 
								385.3,1961.6 358.9,1917.7 771.3,1669.6 942.3,1545.9 975.4,1548.5 1022.9,1596.1 1029.3,1606.6 1128,1924.8 1128.7,1927.4 
								1204,2307.7 							"/>
						</g>
					</g>
					<g>
						<g>
							<path class="st12" d="M964.6,1595.9c-64.5,0-117-52.5-117-117s52.5-117,117-117s117,52.5,117,117S1029.1,1595.9,964.6,1595.9
								z M964.6,1420.3c-32.3,0-58.5,26.3-58.5,58.5s26.3,58.5,58.5,58.5s58.5-26.3,58.5-58.5S996.9,1420.3,964.6,1420.3z"/>
						</g>
					</g>
					<g>
						<g>
							<polygon class="st12" points="1028.7,1448.2 999.5,1232.4 999.4,1228.6 1017,1038.7 854.1,872.3 849.4,860 860.3,634.6 
								842.2,486.1 874.9,482.1 893.2,632 893.3,634.8 882.6,854.4 1045.8,1021.2 1050.5,1034.2 1032.4,1229.8 1061.4,1443.7 
															"/>
						</g>
					</g>
					<g>
						<g>
							<polygon class="st12" points="1065.8,1468.8 1026.9,1425 1332.8,1153.4 1334.8,1151.9 1839.5,775.2 1842.1,773.4 2180,574.2 
								2227.8,427.5 2283.4,445.6 2232.2,602.9 2219.3,619 1873.2,823 1370.8,1198 							"/>
						</g>
					</g>
				</g>
			</g>
		</g>
	</g>
	<g>
		<path class="st18" d="M1276.7,698.4l-44.6-77.2c-23.5-40.8,5.9-91.7,52.9-91.7h0c47.1,0,76.5,50.9,52.9,91.7l-44.6,77.2
			C1289.7,704.8,1280.4,704.8,1276.7,698.4z"/>
		<circle class="st5" cx="1284.5" cy="587.3" r="30.7"/>
	</g>
	<g>
		<path class="st19" d="M969,963.2L931.3,898c-19.8-34.4,5-77.3,44.6-77.3h0c39.7,0,64.5,43,44.6,77.3L983,963.2
			C979.9,968.6,972.1,968.6,969,963.2z"/>
		<circle class="st5" cx="975.6" cy="869.5" r="25.9"/>
	</g>
	<g>
		<path class="st19" d="M1168,1490.1l-48.1-83.3c-25.4-44,6.3-98.9,57.1-98.9h0c50.8,0,82.5,55,57.1,98.9l-48.1,83.3
			C1182,1497,1172,1497,1168,1490.1z"/>
		<circle class="st5" cx="1176.5" cy="1370.3" r="33.1"/>
	</g>
	<g>
		<path class="st18" d="M888.5,1339.4l-30.5-52.9c-16.1-27.9,4-62.8,36.2-62.8h0c32.2,0,52.3,34.9,36.2,62.8l-30.5,52.9
			C897.4,1343.8,891,1343.8,888.5,1339.4z"/>
		<circle class="st5" cx="893.8" cy="1263.5" r="21"/>
	</g>
</g>
</svg>
