<svg data-v-fde0c5aa="" xmlns="http://www.w3.org/2000/svg" viewBox="0 0 300 300" class="iconAbove">
    <!---->
    <defs data-v-fde0c5aa="">
        <!---->
    </defs>
    <rect data-v-fde0c5aa="" fill="rgba(35,27,110,0)" x="0" y="0" width="200px" height="200px"
        class="logo-background-square">
    </rect>
    <defs data-v-fde0c5aa="">
        <!---->
    </defs>
    <g data-v-fde0c5aa="" id="98ce60c9-3137-4e4b-b15b-80764c28e329" fill="#ffffff"
        transform="matrix(3.014842375236528,0,0,3.014842375236528,15.688775202149323,174.61688298619322)">
        <path
            d="M2.34 9.35L2.34 5.92L6.34 5.92L6.34 5.05L2.34 5.05L2.34 1.44L6.93 1.44L6.93 0.57L1.43 0.57L1.43 10.22L7.08 10.22L7.08 9.35ZM11.84 3.54C10.82 3.54 10.12 4.17 9.80 5.28L9.80 3.68L8.89 3.68L8.89 10.22L9.80 10.22L9.80 7.76C9.80 6.15 10.28 4.41 11.83 4.41C12.07 4.41 12.38 4.45 12.71 4.59L12.88 3.74C12.63 3.61 12.21 3.54 11.84 3.54ZM17.63 3.54C16.52 3.54 15.51 4.06 15.02 4.96L15.02 0L14.13 0L14.13 10.22L15.02 10.22L15.02 8.93C15.50 9.83 16.53 10.36 17.63 10.36C19.46 10.36 20.94 8.93 20.94 6.94C20.94 4.96 19.46 3.54 17.63 3.54ZM17.56 9.51C16.20 9.51 15.02 8.48 15.02 6.97C15.02 5.39 16.25 4.40 17.56 4.40C18.94 4.40 20.06 5.49 20.06 6.93C20.06 8.39 18.94 9.51 17.56 9.51ZM28.21 3.68L28.21 4.94C27.72 4.06 26.71 3.54 25.61 3.54C23.77 3.54 22.29 4.96 22.29 6.94C22.29 8.93 23.79 10.36 25.61 10.36C26.70 10.36 27.72 9.84 28.21 8.95L28.21 10.22L29.11 10.22L29.11 3.68ZM25.68 9.51C24.30 9.51 23.18 8.39 23.18 6.93C23.18 5.49 24.30 4.40 25.68 4.40C26.98 4.40 28.21 5.39 28.21 6.97C28.21 8.48 27.03 9.51 25.68 9.51ZM30.90 1.01L30.90 1.86L35.48 1.86L30.88 10.22L31.93 10.22L36.95 1.11L36.95 1.01ZM51.88 0.57L49.18 8.82L47.21 1.97L46.41 1.97L44.44 8.78L41.73 0.57L40.75 0.57L44.02 10.22L44.88 10.22L46.80 3.53L48.73 10.22L49.60 10.22L52.86 0.57ZM59.11 3.68L59.11 4.94C58.62 4.06 57.61 3.54 56.50 3.54C54.67 3.54 53.19 4.96 53.19 6.94C53.19 8.93 54.68 10.36 56.50 10.36C57.60 10.36 58.62 9.84 59.11 8.95L59.11 10.22L60.00 10.22L60.00 3.68ZM56.57 9.51C55.20 9.51 54.08 8.39 54.08 6.93C54.08 5.49 55.20 4.40 56.57 4.40C57.88 4.40 59.11 5.39 59.11 6.97C59.11 8.48 57.93 9.51 56.57 9.51ZM65.09 0.90C62.96 0.90 61.91 2.45 61.91 3.89C61.91 5.50 63.15 6.87 64.99 6.87C65.98 6.87 66.93 6.40 67.38 5.64C67.42 7.48 66.61 9.51 64.78 9.51C63.99 9.51 63.28 9.20 62.86 8.27L62.05 8.61C62.65 9.98 63.70 10.36 64.76 10.36C67.86 10.36 68.36 6.94 68.36 4.96C68.36 2.51 67.20 0.90 65.09 0.90ZM65.00 6.02C63.73 5.99 62.83 5.07 62.83 3.92C62.83 2.74 63.76 1.75 65.13 1.75C66.33 1.76 67.37 2.59 67.37 4.10C67.33 5.40 66.07 6.02 65.00 6.02ZM73.16 3.68L71.67 3.68L71.67 1.08L70.78 1.08L70.78 3.68L69.59 3.68L69.59 4.45L70.78 4.45L70.78 10.22L71.67 10.22L71.67 4.45L73.16 4.45ZM80.50 6.93C80.50 4.86 79.14 3.54 77.28 3.54C75.43 3.54 73.95 4.86 73.95 6.93C73.95 9.00 75.43 10.36 77.28 10.36C78.51 10.36 79.63 9.77 80.21 8.72L79.44 8.39C79.00 9.10 78.20 9.51 77.31 9.51C75.99 9.51 75.01 8.72 74.86 7.32L80.49 7.32C80.50 7.20 80.50 7.06 80.50 6.93ZM74.87 6.55C75.04 5.15 75.99 4.40 77.28 4.40C78.55 4.40 79.49 5.19 79.62 6.55ZM87.67 10.22L84.04 6.52L86.84 3.68L85.60 3.68L83.15 6.19L83.15 0L82.25 0L82.25 10.22L83.15 10.22L83.15 6.86L86.45 10.22Z">
        </path>
    </g>
    <defs data-v-fde0c5aa="">
        <!---->
    </defs>
    <g data-v-fde0c5aa="" id="e328a2dd-4b14-4a78-8381-0e1955be74b6" stroke="none" fill="#1DC7DA"
        transform="matrix(0.9464777567389832,0,0,0.9464777567389832,118.76623402761356,94.14935104142033)">
        <path
            d="M2.9 52.5v2.7c0 2.2 1.8 4 4 4s4-1.8 4-4v-2.4h28.7v2.4c0 2.2 1.8 4 4 4s4-1.8 4-4v-2.7c1.7-.7 2.9-2.3 2.9-4.2v-7.1c0-2.2-1.8-4-4-4h-.2l-.3-1.4 3.4-2.5c.4-.3.5-.9.2-1.4-.3-.4-.9-.5-1.4-.2l-3 2.2-2.4-6.5c-1-2.6-3.5-4.3-6.3-4.3h-3.7v-4.7c0-.6-.4-1-1-1h-13c-.6 0-1 .4-1 1v4.7h-3.7c-2.8 0-5.3 1.7-6.3 4.3l-2.4 6.5-2.9-2.1c-.4-.3-1.1-.2-1.4.2-.3.4-.2 1.1.2 1.4l3.4 2.4-.5 1.4H4c-2.2 0-4 1.8-4 4v7.1c0 1.9 1.2 3.6 2.9 4.2zM9 55.2c0 1.1-.9 2-2 2s-2-.9-2-2v-2.4h4v2.4zm36.8 0c0 1.1-.9 2-2 2s-2-.9-2-2v-2.4h4.1v2.4zm-26-35.8h11.1v3.7H19.8v-3.7zm-10 8.7c.7-1.8 2.4-3 4.4-3h22.4c1.9 0 3.7 1.2 4.4 3l3.4 9.1h-38c.2-.6 3.1-8.4 3.4-9.1zM2 41.2c0-1.1.9-2 2-2H46.7c1.1 0 2 .9 2 2v7.1c0 1.4-1.1 2.5-2.5 2.5H4.5c-1.4 0-2.5-1.1-2.5-2.5v-7.1z">
        </path>
        <path
            d="M10.3 48.9c2.1 0 3.9-1.7 3.9-3.9 0-2.1-1.7-3.9-3.9-3.9S6.5 42.9 6.5 45c0 2.2 1.7 3.9 3.8 3.9zm0-5.7c1 0 1.9.8 1.9 1.9 0 1-.8 1.9-1.9 1.9-1 0-1.9-.8-1.9-1.9.1-1.1.9-1.9 1.9-1.9zM40.4 48.9c2.1 0 3.9-1.7 3.9-3.9 0-2.1-1.7-3.9-3.9-3.9-2.1 0-3.9 1.7-3.9 3.9s1.8 3.9 3.9 3.9zm0-5.7c1 0 1.9.8 1.9 1.9 0 1-.8 1.9-1.9 1.9-1 0-1.9-.8-1.9-1.9 0-1.1.9-1.9 1.9-1.9zM55.2 0c-6.1 0-11 5.7-10.8 12.6.2 8.7 9.6 23 10 23.6.2.3.5.4.8.4.3 0 .6-.2.8-.5.4-.6 10-15.5 10-23.6C66 5.6 61.1 0 55.2 0zm-.1 33.8c-2.3-3.7-8.7-14.6-8.8-21.2-.1-5.9 4-10.6 8.9-10.6C60 2 64 6.8 64 12.6c0 6.1-6.5 17.3-8.9 21.2z">
        </path>
        <path
            d="M55.2 4.4c-3.6 0-6.6 2.9-6.6 6.6 0 3.6 2.9 6.6 6.6 6.6 3.6 0 6.6-2.9 6.6-6.6-.1-3.6-3-6.6-6.6-6.6zm0 11.2c-2.5 0-4.6-2-4.6-4.6 0-2.5 2-4.6 4.6-4.6 2.5 0 4.6 2 4.6 4.6-.1 2.5-2.1 4.6-4.6 4.6zM50.6 64H1.3c-.6 0-1 .4-1 1s.4 1 1 1h49.4c.6 0 1-.4 1-1-.1-.6-.5-1-1.1-1zM50.6 60.6H1.3c-.6 0-1 .4-1 1s.4 1 1 1h49.4c.6 0 1-.4 1-1s-.5-1-1.1-1z">
        </path>
    </g>
    <!---->
</svg>